<?xml version="1.0" encoding="iso-8859-1"?>
<!-- Generator: Adobe Illustrator 18.0.0, SVG Export Plug-In . SVG Version: 6.00 Build 0)  -->
<!DOCTYPE svg PUBLIC "-//W3C//DTD SVG 1.1//EN" "http://www.w3.org/Graphics/SVG/1.1/DTD/svg11.dtd">
<svg version="1.1" id="Capa_1" xmlns="http://www.w3.org/2000/svg" xmlns:xlink="http://www.w3.org/1999/xlink" x="0px" y="0px"
	 viewBox="0 0 50.803 50.803" style="enable-background:new 0 0 50.803 50.803;" xml:space="preserve">
<g>
	<path d="M50.392,1.001c-0.446-0.326-1.072-0.228-1.397,0.219l-9.376,12.862c-0.377-0.331-0.867-0.471-1.341-0.399
		c-0.014-0.365-0.15-0.715-0.387-0.998l3.965-11.286c0.183-0.521-0.091-1.092-0.612-1.274c-0.521-0.187-1.092,0.091-1.275,0.612
		l-3.898,11.094c-0.136-0.361-0.394-0.674-0.752-0.87c-0.459-0.252-0.992-0.271-1.452-0.075c-0.142-0.479-0.496-0.878-0.983-1.071
		c-0.488-0.19-1.018-0.144-1.45,0.107c-0.201-0.457-0.602-0.809-1.11-0.938c-0.506-0.131-1.028-0.016-1.425,0.288
		c-0.256-0.429-0.699-0.727-1.219-0.792c-0.523-0.072-1.022,0.113-1.376,0.464c-0.617-0.787-2-0.787-2.617,0
		c-0.355-0.352-0.857-0.533-1.378-0.464c-0.52,0.065-0.961,0.363-1.218,0.792c-0.396-0.304-0.915-0.421-1.425-0.288
		c-0.508,0.13-0.909,0.481-1.11,0.938c-0.431-0.252-0.961-0.3-1.45-0.107c-0.219,0.087-0.398,0.226-0.556,0.384
		c-1.208-1.331-2.818-2.741-4.505-3.292L11.173,6.62l-0.357,0.849c-0.079,0.188-1.436,3.511-0.581,6.761
		c-0.076,0.084-0.149,0.171-0.207,0.271c-0.174,0.298-0.248,0.638-0.218,0.974c-0.483,0.021-0.988,0.201-1.322,0.605
		c-0.334,0.403-0.452,0.924-0.345,1.411c-0.497,0.05-0.956,0.322-1.236,0.766C6.625,18.699,6.573,19.229,6.74,19.7
		c-0.487,0.111-0.908,0.439-1.131,0.914c-0.223,0.474-0.208,1.007,0.017,1.453c-0.257,0.094-0.488,0.251-0.67,0.461
		c-0.056,0.065-0.1,0.137-0.145,0.209H2.374c-0.652,0-1.282,0.274-1.729,0.752c-0.451,0.482-0.684,1.137-0.64,1.797
		c0.592,8.747,6.156,13.139,14.329,17.041c0.912,0.436,1.666,1.161,2.122,2.042c0.446,0.862,0.375,1.974-0.194,2.92
		c-0.429,0.712-0.441,1.568-0.032,2.292c0.409,0.725,1.149,1.156,1.98,1.156h13.488c0.831,0,1.572-0.432,1.98-1.156
		c0.409-0.724,0.397-1.58-0.042-2.31c-0.559-0.929-0.629-2.04-0.184-2.901c0.456-0.882,1.209-1.607,2.122-2.043
		c8.172-3.902,13.736-8.294,14.328-17.041c0.044-0.66-0.188-1.314-0.64-1.797c-0.446-0.478-1.077-0.752-1.729-0.752h-2.35
		c-0.045-0.072-0.089-0.144-0.145-0.209c-0.182-0.21-0.413-0.367-0.67-0.461c0.224-0.446,0.239-0.979,0.016-1.453
		c-0.223-0.475-0.644-0.803-1.131-0.914c0.167-0.471,0.115-1.001-0.166-1.443c-0.281-0.443-0.739-0.716-1.236-0.766
		c0.106-0.487-0.011-1.008-0.345-1.411c-0.155-0.188-0.351-0.324-0.562-0.422l9.665-13.26C50.937,1.952,50.838,1.327,50.392,1.001z
		 M12.342,9.221c1.395,0.796,2.763,2.265,3.65,3.413c0.145,0.187,0.281,0.373,0.405,0.547c0.006,0.009,0.014,0.019,0.02,0.028
		c0.13,0.185,0.244,0.357,0.332,0.502c0.321,0.528,0.357,1.034,0.235,1.471c-0.122,0.436-0.402,0.804-0.714,1.057
		c-0.636,0.518-1.708,0.815-2.644-0.06l-0.039-0.037l-0.039-0.038c-0.003-0.003-0.005-0.006-0.008-0.009
		c-0.253-0.246-0.474-0.512-0.665-0.8c-0.008-0.012-0.016-0.024-0.024-0.037c-0.186-0.285-0.342-0.592-0.472-0.925
		C11.66,12.495,12.018,10.414,12.342,9.221z M47.802,24.854c0.043,0.047,0.115,0.147,0.105,0.297
		c-0.529,7.805-5.441,11.668-13.195,15.371c-1.303,0.622-2.381,1.662-3.037,2.929c-0.763,1.474-0.668,3.333,0.258,4.869
		c0.068,0.113,0.04,0.214,0.003,0.277s-0.107,0.14-0.239,0.14H18.21c-0.132,0-0.203-0.076-0.239-0.14s-0.065-0.164,0.014-0.295
		c0.915-1.519,1.01-3.378,0.247-4.853c-0.655-1.266-1.734-2.306-3.036-2.928C7.441,36.819,2.529,32.956,2,25.151
		c-0.01-0.149,0.062-0.25,0.105-0.297c0.05-0.054,0.137-0.117,0.268-0.117h2.321h40.606h2.234
		C47.665,24.737,47.752,24.8,47.802,24.854z M39.697,17.577c-0.078,0.435,0.021,0.891,0.295,1.267
		c0.273,0.377,0.675,0.611,1.113,0.672c-0.131,0.421-0.09,0.885,0.134,1.293c0.224,0.407,0.594,0.691,1.021,0.807
		c-0.159,0.347-0.193,0.742-0.089,1.122H7.825c0.104-0.38,0.07-0.775-0.088-1.122c0.426-0.115,0.796-0.398,1.02-0.807
		c0.224-0.407,0.266-0.871,0.134-1.293c0.437-0.061,0.84-0.295,1.113-0.672c0.274-0.376,0.373-0.832,0.295-1.267
		c0.442-0.006,0.871-0.188,1.189-0.527c0.037-0.04,0.072-0.081,0.104-0.123c0.176,0.218,0.366,0.425,0.568,0.621l0.074,0.069
		l0.039,0.037c0.055,0.051,0.117,0.087,0.174,0.135c0.138,0.116,0.275,0.233,0.422,0.328c0.088,0.057,0.183,0.095,0.274,0.144
		c0.124,0.067,0.246,0.139,0.375,0.192c0.1,0.041,0.203,0.063,0.305,0.095c0.126,0.039,0.251,0.084,0.379,0.111
		c0.105,0.021,0.211,0.025,0.317,0.037c0.129,0.015,0.257,0.035,0.387,0.037c0.017,0,0.034,0.005,0.051,0.005
		c0.116,0,0.233-0.02,0.349-0.031c0.094-0.009,0.188-0.009,0.282-0.025c0.14-0.023,0.277-0.065,0.415-0.104
		c0.087-0.024,0.174-0.039,0.26-0.069c0.157-0.056,0.31-0.132,0.463-0.208c0.062-0.031,0.127-0.052,0.188-0.087
		c0.213-0.12,0.42-0.259,0.618-0.42c0.743-0.604,1.21-1.387,1.403-2.223c0.221-0.955,0.081-1.979-0.476-2.895
		c-0.002-0.004-0.006-0.009-0.008-0.013c-0.095-0.155-0.224-0.351-0.381-0.576c-0.014-0.02-0.023-0.036-0.037-0.056
		c0.377,0.183,0.816,0.218,1.238,0.082c0.442-0.144,0.79-0.454,0.983-0.852c0.359,0.255,0.813,0.36,1.271,0.272
		c0.457-0.087,0.841-0.352,1.082-0.722c0.326,0.299,0.766,0.469,1.227,0.43c0.465-0.029,0.879-0.243,1.165-0.58
		c0.285,0.337,0.699,0.551,1.163,0.58c0.463,0.028,0.902-0.131,1.229-0.43c0.241,0.37,0.625,0.635,1.082,0.722
		c0.456,0.087,0.911-0.018,1.271-0.272c0.192,0.397,0.54,0.707,0.982,0.851c0.441,0.145,0.906,0.098,1.296-0.11
		c0.142,0.419,0.448,0.771,0.869,0.969c0.42,0.196,0.886,0.208,1.299,0.052c0.088,0.433,0.348,0.82,0.741,1.069
		c0.096,0.061,0.195,0.11,0.298,0.149l-1.761,5.012c-0.183,0.521,0.091,1.092,0.612,1.274c0.11,0.039,0.222,0.057,0.332,0.057
		c0.413,0,0.799-0.257,0.943-0.669l1.545-4.398c0.343,0.25,0.754,0.36,1.159,0.316c-0.006,0.122,0.004,0.242,0.025,0.362
		l-2.696,3.699c-0.325,0.446-0.227,1.071,0.219,1.396c0.178,0.13,0.384,0.192,0.588,0.192c0.309,0,0.613-0.143,0.809-0.411
		l2.557-3.508C39.605,17.565,39.65,17.576,39.697,17.577z"/>
	<path d="M24.661,16.444l1-1c0.391-0.391,0.391-1.023,0-1.414s-1.023-0.391-1.414,0l-1,1c-0.391,0.391-0.391,1.023,0,1.414
		c0.195,0.195,0.451,0.293,0.707,0.293S24.466,16.639,24.661,16.444z"/>
	<path d="M20.661,17.03c-0.391-0.391-1.023-0.391-1.414,0s-0.391,1.023,0,1.414l1,1c0.195,0.195,0.451,0.293,0.707,0.293
		s0.512-0.098,0.707-0.293c0.391-0.391,0.391-1.023,0-1.414L20.661,17.03z"/>
	<path d="M25.247,19.03l-1,1c-0.391,0.391-0.391,1.023,0,1.414c0.195,0.195,0.451,0.293,0.707,0.293s0.512-0.098,0.707-0.293l1-1
		c0.391-0.391,0.391-1.023,0-1.414S25.638,18.639,25.247,19.03z"/>
	<path d="M29.954,17.737c0.256,0,0.512-0.098,0.707-0.293c0.391-0.391,0.391-1.023,0-1.414l-1-1c-0.391-0.391-1.023-0.391-1.414,0
		s-0.391,1.023,0,1.414l1,1C29.442,17.639,29.698,17.737,29.954,17.737z"/>
	<path d="M30.247,19.03l-1,1c-0.391,0.391-0.391,1.023,0,1.414c0.195,0.195,0.451,0.293,0.707,0.293s0.512-0.098,0.707-0.293l1-1
		c0.391-0.391,0.391-1.023,0-1.414C31.271,18.639,30.638,18.639,30.247,19.03z"/>
	<path d="M12.247,19.03l-1,1c-0.391,0.391-0.391,1.023,0,1.414c0.195,0.195,0.451,0.293,0.707,0.293s0.512-0.098,0.707-0.293l1-1
		c0.391-0.391,0.391-1.023,0-1.414S12.638,18.639,12.247,19.03z"/>
	<path d="M17.954,19.737h-1c-0.552,0-1,0.447-1,1s0.448,1,1,1h1c0.552,0,1-0.447,1-1S18.506,19.737,17.954,19.737z"/>
	<path d="M21.476,38.84c-3.891-1.501-6.811-3.129-9.191-5.122c-0.424-0.355-1.054-0.299-1.409,0.124
		c-0.354,0.424-0.299,1.055,0.125,1.409c2.554,2.139,5.653,3.872,9.755,5.454c0.118,0.046,0.24,0.067,0.36,0.067
		c0.401,0,0.78-0.243,0.933-0.64C22.248,39.618,21.991,39.039,21.476,38.84z"/>
	<path d="M8.269,28.535c-0.22-0.507-0.809-0.74-1.315-0.521c-0.507,0.22-0.74,0.809-0.521,1.315
		c0.461,1.065,1.063,2.087,1.789,3.036c0.197,0.258,0.494,0.393,0.795,0.393c0.212,0,0.426-0.067,0.607-0.206
		c0.438-0.335,0.522-0.963,0.187-1.401C9.184,30.332,8.665,29.452,8.269,28.535z"/>
</g>
<g>
</g>
<g>
</g>
<g>
</g>
<g>
</g>
<g>
</g>
<g>
</g>
<g>
</g>
<g>
</g>
<g>
</g>
<g>
</g>
<g>
</g>
<g>
</g>
<g>
</g>
<g>
</g>
<g>
</g>
</svg>
